<?xml version="1.0" encoding="UTF-8"?>
<svg width="220px" height="126px" viewBox="0 0 220 126" version="1.1" xmlns="http://www.w3.org/2000/svg" xmlns:xlink="http://www.w3.org/1999/xlink">
    <!-- Generator: Sketch 48.2 (47327) - http://www.bohemiancoding.com/sketch -->
    <title>logo-block--sandy-brownSVG</title>
    <desc>Created with Sketch.</desc>
    <defs>
        <path d="M16,17 L16.5,17 C25.0604136,17 32,23.9395864 32,32.5 C32,41.0604136 25.0604136,48 16.5,48 L15.9290286,48 C7.12512008,47.9616127 1.07926736e-15,40.8128868 0,32 L0,0 C8.836556,-1.623249e-15 16,7.163444 16,16 L16,17 Z" id="path-1"></path>
        <path d="M14.5,17 L16.5,17 C25.0604136,17 32,23.9395864 32,32.5 L32,32.5 C32,41.0604136 25.0604136,48 16.5,48 L14.5,48 L14.5,17 Z" id="path-3"></path>
    </defs>
    <g id="[07]-Logo" stroke="none" stroke-width="1" fill="none" fill-rule="evenodd">
        <g id="logo-lockup--sandy-brown" transform="translate(-820.000000, -317.000000)">
            <g id="logo-lockup-block--sandy-brown" transform="translate(620.000000, 0.000000)">
                <g id="logo-block--sandy-brown" transform="translate(200.000000, 317.000000)">
                    <g id="logo-symbol--sandy-brown" transform="translate(94.000000, 0.000000)">
                        <mask id="mask-2" fill="white">
                            <use xlink:href="#path-1"></use>
                        </mask>
                        <path stroke="#F4814D" stroke-width="1.5" d="M0.75,0.768120378 L0.75,32 C0.75,40.397093 7.53846589,47.2134078 15.9290286,47.25 L16.5,47.25 C24.6462001,47.25 31.25,40.6462001 31.25,32.5 C31.25,24.3537999 24.6462001,17.75 16.5,17.75 L15.25,17.75 L15.25,16 C15.25,7.82912861 8.82397086,1.15913675 0.750008972,0.768120813 Z"></path>
                        <g id="background" mask="url(#mask-2)">
                            <use fill="#F4814D" fill-rule="evenodd" xlink:href="#path-3"></use>
                            <path stroke="#F4814D" stroke-width="1.5" d="M15.25,17.75 L15.25,47.25 L16.5,47.25 C24.6462001,47.25 31.25,40.6462001 31.25,32.5 C31.25,24.3537999 24.6462001,17.75 16.5,17.75 L15.25,17.75 Z"></path>
                        </g>
                    </g>
                    <path d="M12.0364013,90.6006257 C14.1463786,90.6006257 16.0165577,91.1122646 17.6469947,92.1355579 C19.2774317,93.1588511 20.5402022,94.6058301 21.4353441,96.4765381 C22.330486,98.3472461 22.7780502,100.529706 22.7780502,103.023983 C22.7780502,105.518261 22.330486,107.716709 21.4353441,109.619395 C20.5402022,111.522081 19.2774317,113.001037 17.6469947,114.056309 C16.0165577,115.11158 14.1463786,115.639208 12.0364013,115.639208 C10.1502094,115.639208 8.50381246,115.223501 7.09716092,114.392075 C5.69050938,113.560649 4.61955211,112.377484 3.88425699,110.842544 L3.88425699,115.303441 L0,115.303441 L0,80 L3.88425699,80 L3.88425699,95.4452555 C4.58758276,93.8783377 5.65054781,92.6791839 7.07318402,91.8477581 C8.49582024,91.0163323 10.1502094,90.6006257 12.0364013,90.6006257 Z M11.3170944,112.425443 C13.6508572,112.425443 15.473083,111.602024 16.7838265,109.955162 C18.09457,108.308299 18.7499319,105.997929 18.7499319,103.023983 C18.7499319,100.113993 18.1025622,97.8595839 16.8078034,96.2606882 C15.5130446,94.6617925 13.6828266,93.8623566 11.3170944,93.8623566 C8.91939295,93.8623566 7.08118271,94.6617925 5.80240859,96.2606882 C4.52363446,97.8595839 3.88425699,100.145971 3.88425699,103.119917 C3.88425699,106.093863 4.52363446,108.388244 5.80240859,110.003128 C7.08118271,111.618013 8.91939295,112.425443 11.3170944,112.425443 Z M40.4929795,90.6006257 C41.2922133,90.6006257 42.0274974,90.696558 42.6988538,90.8884254 L42.6029463,94.4379562 C41.8676511,94.1821329 41.020476,94.0542231 40.0613954,94.0542231 C37.7276326,94.0542231 35.9933212,94.7817098 34.8584092,96.2367049 C33.7234971,97.6917 33.1560496,99.4584533 33.1560496,101.537018 L33.1560496,115.303441 L29.2717926,115.303441 L29.2717926,97.9395203 C29.2717926,95.445243 29.1439171,93.1908338 28.8881623,91.1762252 L32.5806041,91.1762252 L32.9642345,95.637122 C33.5716522,94.0062484 34.5467028,92.7591284 35.8894157,91.8957247 C37.2321285,91.032321 38.7666344,90.6006257 40.4929795,90.6006257 Z M47.1305833,115.303441 L47.1305833,91.1762252 L51.0148402,91.1762252 L51.0148402,115.303441 L47.1305833,115.303441 Z M48.953418,80.9593326 L49.2879131,80.9593326 C50.5065101,80.9593326 51.4943781,81.9472007 51.4943781,83.1657977 L51.4943781,83.1657977 C51.4943781,84.3843947 50.5065101,85.3722628 49.2879131,85.3722628 L48.953418,85.3722628 C47.734821,85.3722628 46.7469529,84.3843947 46.7469529,83.1657977 L46.7469529,83.1657977 C46.7469529,81.9472007 47.734821,80.9593326 48.953418,80.9593326 Z M80.5264018,91.1762252 L80.5264018,115.111575 C80.5264018,118.693101 79.6072967,121.403189 77.7690589,123.241919 C75.9308211,125.080649 73.2214591,126 69.6408915,126 C65.9644159,126 62.7994974,125.168587 60.1460411,123.505735 L60.8173941,120.339937 C62.3519231,121.203341 63.7985146,121.826901 65.1572121,122.210636 C66.5159097,122.594371 68.0104545,122.786236 69.6408915,122.786236 C71.9746543,122.786236 73.7329423,122.17067 74.9158084,120.93952 C76.0986745,119.708371 76.6900986,117.877662 76.6900986,115.447341 L76.6900986,109.739312 C75.9548035,111.274252 74.875854,112.465411 73.4532178,113.312826 C72.0305816,114.160241 70.3442235,114.583942 68.394093,114.583942 C66.2841157,114.583942 64.4059443,114.088291 62.7595226,113.096976 C61.113101,112.105661 59.8423382,110.698654 58.9471963,108.875912 C58.0520544,107.053171 57.6044902,104.958649 57.6044902,102.592284 C57.6044902,100.225918 58.0520544,98.131396 58.9471963,96.3086548 C59.8423382,94.4859137 61.113101,93.0789066 62.7595226,92.0875912 C64.4059443,91.0962759 66.2841157,90.6006257 68.394093,90.6006257 C70.3122542,90.6006257 71.9826278,91.0163323 73.405264,91.8477581 C74.8279002,92.6791839 75.9068497,93.8463602 76.6421448,95.3493222 L76.6421448,91.1762252 L80.5264018,91.1762252 Z M69.1613536,111.322211 C71.4951164,111.322211 73.3253344,110.546758 74.6520626,108.995829 C75.9787907,107.4449 76.6421448,105.310406 76.6421448,102.592284 C76.6421448,99.8741609 75.9787907,97.7396671 74.6520626,96.1887383 C73.3253344,94.6378094 71.4951164,93.8623566 69.1613536,93.8623566 C66.7956215,93.8623566 64.9334346,94.6378094 63.5747371,96.1887383 C62.2160396,97.7396671 61.536701,99.8741609 61.536701,102.592284 C61.536701,105.310406 62.2160396,107.4449 63.5747371,108.995829 C64.9334346,110.546758 66.7956215,111.322211 69.1613536,111.322211 Z M100.543113,90.6006257 C106.329566,90.6006257 109.222749,93.7823804 109.222749,100.145985 L109.222749,115.303441 L105.338492,115.303441 L105.338492,100.337852 C105.338492,98.0993979 104.890928,96.4605544 103.995786,95.4212722 C103.100644,94.3819899 101.694014,93.8623566 99.7758524,93.8623566 C97.5379976,93.8623566 95.7477407,94.5498715 94.4050279,95.9249218 C93.062315,97.2999721 92.3909687,99.1546633 92.3909687,101.489051 L92.3909687,115.303441 L88.5067117,115.303441 L88.5067117,80 L92.3909687,80 L92.3909687,95.1094891 C93.1582332,93.638505 94.2531671,92.5192948 95.6758033,91.7518248 C97.0984395,90.9843549 98.7208599,90.6006257 100.543113,90.6006257 Z M122.238207,94.2460897 L122.238207,107.436913 C122.238207,109.227677 122.605849,110.482791 123.341144,111.202294 C124.076439,111.921797 125.115428,112.281543 126.45814,112.281543 C127.353282,112.281543 128.216442,112.137645 129.047645,111.849844 L129.047645,115.159541 C128.056595,115.47932 126.937684,115.639208 125.69088,115.639208 C123.389086,115.639208 121.590837,114.991664 120.296078,113.696559 C119.00132,112.401453 118.35395,110.490802 118.35395,107.964546 L118.35395,94.2460897 L113.654478,94.2460897 L113.654478,91.1762252 L118.35395,91.1762252 L118.35395,84.9885297 L122.238207,83.5974974 L122.238207,91.1762252 L129.143553,91.1762252 L129.143553,94.2460897 L122.238207,94.2460897 Z M142.494687,115.639208 C138.434579,115.639208 135.221707,114.599941 132.855975,112.521376 L134.150727,109.643379 C135.461471,110.666672 136.788179,111.402153 138.130892,111.849844 C139.473605,112.297534 140.976142,112.521376 142.638548,112.521376 C144.460801,112.521376 145.843455,112.209596 146.786551,111.586027 C147.729647,110.962458 148.201188,110.059095 148.201188,108.875912 C148.201188,107.916575 147.881499,107.149117 147.242112,106.573514 C146.602725,105.997912 145.547752,105.550228 144.077162,105.230448 L140.00109,104.271116 C137.987021,103.823425 136.428538,103.023989 135.325595,101.872784 C134.222653,100.721579 133.67119,99.3465495 133.67119,97.7476538 C133.67119,95.6371114 134.518365,93.9183243 136.21274,92.5912409 C137.907116,91.2641574 140.144937,90.6006257 142.926271,90.6006257 C144.620647,90.6006257 146.21909,90.8724338 147.72165,91.4160584 C149.22421,91.9596829 150.48698,92.7431301 151.509999,93.7664234 L150.215247,96.5964546 C147.945423,94.7097577 145.515789,93.7664234 142.926271,93.7664234 C141.199926,93.7664234 139.865226,94.0941921 138.92213,94.7497393 C137.979034,95.4052866 137.507493,96.3246378 137.507493,97.5078206 C137.507493,98.499136 137.803205,99.2825831 138.394638,99.8581856 C138.986071,100.433788 139.937145,100.881472 141.247888,101.201251 L145.323961,102.208551 C147.561815,102.720197 149.224197,103.511639 150.311155,104.582899 C151.398113,105.654159 151.941584,107.053172 151.941584,108.779979 C151.941584,110.858544 151.094408,112.52137 149.400033,113.768509 C147.705657,115.015648 145.403898,115.639208 142.494687,115.639208 Z M158.627141,115.303441 L158.627141,91.1762252 L162.511398,91.1762252 L162.511398,115.303441 L158.627141,115.303441 Z M160.449976,80.9593326 L160.784471,80.9593326 C162.003068,80.9593326 162.990936,81.9472007 162.990936,83.1657977 L162.990936,83.1657977 C162.990936,84.3843947 162.003068,85.3722628 160.784471,85.3722628 L160.449976,85.3722628 C159.231379,85.3722628 158.243511,84.3843947 158.243511,83.1657977 L158.243511,83.1657977 C158.243511,81.9472007 159.231379,80.9593326 160.449976,80.9593326 Z M191.783191,80 L191.783191,115.303441 L187.946888,115.303441 L187.946888,110.938478 C187.243562,112.44144 186.180597,113.600622 184.757961,114.416058 C183.335324,115.231495 181.680935,115.639208 179.794743,115.639208 C177.684766,115.639208 175.822579,115.11158 174.208127,114.056309 C172.593674,113.001037 171.338896,111.522081 170.443754,109.619395 C169.548612,107.716709 169.101048,105.518261 169.101048,103.023983 C169.101048,100.529706 169.54062,98.3472461 170.419777,96.4765381 C171.298935,94.6058301 172.553713,93.1588511 174.18415,92.1355579 C175.814587,91.1122646 177.684766,90.6006257 179.794743,90.6006257 C181.680935,90.6006257 183.327332,91.0083379 184.733984,91.8237748 C186.140635,92.6392116 187.195608,93.7824049 187.898934,95.2533889 L187.898934,80 L191.783191,80 Z M180.562004,112.425443 C182.927736,112.425443 184.749962,111.618013 186.028736,110.003128 C187.30751,108.388244 187.946888,106.093863 187.946888,103.119917 C187.946888,100.177948 187.30751,97.8995562 186.028736,96.2846715 C184.749962,94.6697869 182.927736,93.8623566 180.562004,93.8623566 C178.196272,93.8623566 176.350069,94.6617925 175.023341,96.2606882 C173.696613,97.8595839 173.033259,100.113993 173.033259,103.023983 C173.033259,105.997929 173.696613,108.308299 175.023341,109.955162 C176.350069,111.602024 178.196272,112.425443 180.562004,112.425443 Z M220,103.119917 L202.305051,103.119917 C202.337021,106.189796 203.048328,108.50816 204.438995,110.075078 C205.829662,111.641996 207.851693,112.425443 210.50515,112.425443 C213.318453,112.425443 215.907931,111.482109 218.273664,109.595412 L219.568416,112.425443 C218.513427,113.416759 217.162742,114.200206 215.516321,114.775808 C213.869899,115.351411 212.183541,115.639208 210.457196,115.639208 C206.684812,115.639208 203.727691,114.527992 201.585745,112.305527 C199.443798,110.083062 198.372841,107.037211 198.372841,103.167883 C198.372841,100.705584 198.852374,98.5231239 199.811454,96.620438 C200.770535,94.717752 202.113228,93.2387957 203.839573,92.1835245 C205.565918,91.1282533 207.532004,90.6006257 209.737889,90.6006257 C212.934824,90.6006257 215.444381,91.6478866 217.266634,93.74244 C219.088887,95.8369934 220,98.7229569 220,102.400417 L220,103.119917 Z M209.785843,93.6225235 C207.771773,93.6225235 206.133369,94.2300947 204.870579,95.4452555 C203.60779,96.6604162 202.800576,98.371209 202.448913,100.577685 L216.499373,100.577685 C216.307557,98.3072532 215.644203,96.5804717 214.509291,95.3972888 C213.374379,94.214106 211.799912,93.6225235 209.785843,93.6225235 Z" id="brightside" fill="#495057"></path>
                </g>
            </g>
        </g>
    </g>
</svg>