<?xml version="1.0" encoding="UTF-8"?>
<svg width="32px" height="48px" viewBox="0 0 32 48" version="1.1" xmlns="http://www.w3.org/2000/svg" xmlns:xlink="http://www.w3.org/1999/xlink">
    <!-- Generator: Sketch 48.2 (47327) - http://www.bohemiancoding.com/sketch -->
    <title>logo-symbol--sandy-brownSVG</title>
    <desc>Created with Sketch.</desc>
    <defs>
        <path d="M16,17 L16.5,17 C25.0604136,17 32,23.9395864 32,32.5 C32,41.0604136 25.0604136,48 16.5,48 L15.9290286,48 C7.12512008,47.9616127 1.07926736e-15,40.8128868 0,32 L0,0 C8.836556,-1.623249e-15 16,7.163444 16,16 L16,17 Z" id="path-1"></path>
        <path d="M14.5,17 L16.5,17 C25.0604136,17 32,23.9395864 32,32.5 L32,32.5 C32,41.0604136 25.0604136,48 16.5,48 L14.5,48 L14.5,17 Z" id="path-3"></path>
    </defs>
    <g id="[07]-Logo" stroke="none" stroke-width="1" fill="none" fill-rule="evenodd">
        <g id="logo-lockup--sandy-brown" transform="translate(-174.000000, -353.000000)">
            <g id="logo-lockup-inline--sandy-brown">
                <g id="logo-inline--sandy-brown" transform="translate(174.000000, 353.000000)">
                    <g id="logo-symbol--sandy-brown">
                        <mask id="mask-2" fill="white">
                            <use xlink:href="#path-1"></use>
                        </mask>
                        <path stroke="#F4814D" stroke-width="1.5" d="M0.75,0.768120378 L0.75,32 C0.75,40.397093 7.53846589,47.2134078 15.9290286,47.25 L16.5,47.25 C24.6462001,47.25 31.25,40.6462001 31.25,32.5 C31.25,24.3537999 24.6462001,17.75 16.5,17.75 L15.25,17.75 L15.25,16 C15.25,7.82912861 8.82397086,1.15913675 0.750008972,0.768120813 Z"></path>
                        <g id="background" mask="url(#mask-2)">
                            <use fill="#F4814D" fill-rule="evenodd" xlink:href="#path-3"></use>
                            <path stroke="#F4814D" stroke-width="1.5" d="M15.25,17.75 L15.25,47.25 L16.5,47.25 C24.6462001,47.25 31.25,40.6462001 31.25,32.5 C31.25,24.3537999 24.6462001,17.75 16.5,17.75 L15.25,17.75 Z"></path>
                        </g>
                    </g>
                </g>
            </g>
        </g>
    </g>
</svg>